<svg width="16" height="16" viewBox="0 0 16 16" fill="none" xmlns="http://www.w3.org/2000/svg">
<path d="M6.64846 12.4833C6.82342 13.1259 6.43593 13.7865 5.78297 13.9587C5.13001 14.1309 4.45885 13.7495 4.28389 13.1068C4.10893 12.4642 4.49642 11.8036 5.14938 11.6314M6.64846 12.4833C6.4735 11.8406 5.80234 11.4592 5.14938 11.6314M6.64846 12.4833L14.3333 10.4566M5.14938 11.6314L3.09022 4.06797C2.91526 3.42533 2.2441 3.04395 1.59114 3.21615L1 3.37204M8.29457 4.56623L9.47685 4.25444M7.9467 10.2702L12.6759 9.02301C13.3288 8.85081 13.7163 8.19025 13.5413 7.54761L12.2742 2.89317C12.0992 2.25052 11.4281 1.86915 10.7751 2.04135L6.04594 3.2885C5.39299 3.4607 5.00549 4.12125 5.18045 4.7639L6.44762 9.41834C6.62258 10.061 7.29374 10.4424 7.9467 10.2702Z" stroke="white" stroke-linecap="round" stroke-linejoin="round"/>
</svg>
